HIERARCHY
ROOT pelvis
{
	OFFSET 0.000000 0.000000 0.000000
	CHANNELS 6 Xposition Yposition Zposition Zrotation Xrotation Yrotation
	JOINT lfemur
	{
		OFFSET 11.446000 0.000000 0.000000
		CHANNELS 3 Zrotation Xrotation Yrotation
		JOINT ltibia
		{
			OFFSET 0.000000 -42.030400 0.000000
			CHANNELS 3 Zrotation Xrotation Yrotation
			JOINT lfoot
			{
				OFFSET 0.000000 -39.930200 0.000000
				CHANNELS 3 Zrotation Xrotation Yrotation
				JOINT ltoes
				{
					OFFSET 0.000000 0.000000 11.775800
					CHANNELS 3 Zrotation Xrotation Yrotation
					End Site
					{
					    OFFSET 0.000000 0.000000 5.000000
					}
				}
			}
		}
	}
	JOINT rfemur
	{
		OFFSET -11.446000 0.000000 0.000000
		CHANNELS 3 Zrotation Xrotation Yrotation
		JOINT rtibia
		{
			OFFSET 0.000000 -42.030400 0.000000
			CHANNELS 3 Zrotation Xrotation Yrotation
			JOINT rfoot
			{
				OFFSET 0.000000 -39.930200 0.000000
				CHANNELS 3 Zrotation Xrotation Yrotation
				JOINT rtoes
				{
					OFFSET 0.000000 0.000000 11.775800
					CHANNELS 3 Zrotation Xrotation Yrotation
					End Site
					{
					    OFFSET 0.000000 0.000000 5.000000
					}
				}
			}
		}
	}
	JOINT thorax
	{
		OFFSET 0.000000 11.255600 -5.000000
		CHANNELS 3 Zrotation Xrotation Yrotation
		JOINT head
		{
			OFFSET 0.000000 43.799300 0.000000
			CHANNELS 3 Zrotation Xrotation Yrotation
			End Site
			{
			    OFFSET 0.000000 5.000000 0.000000
			}
		}
		JOINT lclavicle
		{
			OFFSET 0.000000 39.863000 0.000000
			CHANNELS 3 Zrotation Xrotation Yrotation
			JOINT lhumerus
			{
				OFFSET 17.380600 4.958300 0.000000
				CHANNELS 3 Zrotation Xrotation Yrotation
				JOINT lradius
				{
					OFFSET 0.000000 -27.561300 0.000000
					CHANNELS 3 Zrotation Xrotation Yrotation
					JOINT lhand
					{
						OFFSET 0.000000 -26.933000 0.000000
						CHANNELS 3 Zrotation Xrotation Yrotation
						End Site
						{
						    OFFSET 0.000000 -5.000000 0.000000
						}
					}
				}
			}
		}
		JOINT rclavicle
		{
			OFFSET 0.000000 39.863000 0.000000
			CHANNELS 3 Zrotation Xrotation Yrotation
			JOINT rhumerus
			{
				OFFSET -17.380600 4.958300 0.000000
				CHANNELS 3 Zrotation Xrotation Yrotation
				JOINT rradius
				{
					OFFSET 0.000000 -27.561300 0.000000
					CHANNELS 3 Zrotation Xrotation Yrotation
					JOINT rhand
					{
						OFFSET 0.000000 -26.933000 0.000000
						CHANNELS 3 Zrotation Xrotation Yrotation
						End Site
						{
						    OFFSET 0.000000 -5.000000 0.000000
						}
					}
				}
			}
		}
	}
}
MOTION
Frames:	7
Frame Time:	0.0333333
9.02752 85.0898 5.5433 7.99339 5.43251 -48.3895 10.2189 -34.5746 7.32814 1.62246 68.308 -1.73157 1.08415 -1.86162 0.124938 -2.34577e-015 -5 9.57811e-015 8.9878 -2.46699 6.18165 -0.222057 35.3225 0.164162 -4.45821 -5.95565 -8.88023 2.90229e-015 -5 -3.1927e-015 6.48348 9.36534 2.36352 -0.728943 -19.4362 -8.71372 -1.59028e-015 1.59028e-015 3.18055e-015 6.88914 13.3578 -43.4455 110.9 -48.9708 84.6928 -0.655378 3.18217 23.291 -1.59028e-015 1.59028e-015 3.18055e-015 -12.9622 -4.94882 46.2093 -114.15 -47.9064 -87.4156 0.228126 1.90543 -13.6825 
2.99452 87.4376 12.7946 8.51075 5.16764 -46.9639 6.33644 -35.8611 6.44886 0.744815 55.5615 -0.886724 1.12199 -1.38761 2.34202 -1.59028e-015 -5 -0 6.26435 3.39373 4.44037 -0.166414 31.2585 0.33566 -2.6601 5.96882 -3.47778 -8.42861e-015 -5 1.27708e-014 6.00597 8.3489 3.71886 -1.59292 -19.0659 -11.1054 3.18055e-015 -5.56597e-015 -3.18055e-015 6.40972 16.2846 -42.8651 109.117 -49.4933 83.1874 -0.594979 3.03828 22.1789 3.18055e-015 -5.56597e-015 -3.18055e-015 -14.6002 -4.57452 46.1305 -117.738 -46.5473 -90.3883 0.156698 1.58365 -11.3347 
-3.47898 89.3915 19.8965 8.61692 5.16533 -46.8078 3.70783 -36.2485 4.16585 0.337534 41.673 -0.518766 1.05266 2.47921 1.37983 -2.38614e-016 -5 6.38541e-015 4.88355 8.19824 6.46275 -0.125796 27.7909 0.074307 -0.553524 18.8242 -1.78076 3.18055e-015 -5 -0 5.83873 7.27201 4.70784 -1.73771 -18.5298 -11.8601 -7.95139e-016 -1.59028e-015 -0 6.40869 18.7764 -41.4553 107.325 -49.977 81.6676 -0.586417 3.0172 22.016 -7.95139e-016 -1.59028e-015 -0 -15.4558 -4.09129 47.0129 -119.336 -45.8751 -91.6993 0.105103 1.2997 -9.27951 
-9.72024 89.1885 26.8419 7.90269 5.20466 -46.0256 2.35102 -34.6634 -0.212287 0.135759 27.7168 -0.323543 1.00086 7.89509 -0.119723 -0 -5 -0 5.60742 9.84364 8.91874 -0.202675 34.1509 0.0810251 0.0265682 19.57 -3.45291 3.31969e-015 -5 1.59635e-015 6.14423 6.99366 5.09133 -1.56476 -18.1056 -12.7993 -7.95139e-016 0 3.18055e-015 7.74248 19.0326 -41.9888 105.953 -50.3203 80.4993 -0.507869 2.81544 20.4716 -7.95139e-016 0 3.18055e-015 -15.7563 -3.18425 46.7015 -120.824 -45.2101 -92.911 0.13655 1.47908 -10.5764 
-15.8931 88.5867 33.0394 7.01417 4.91387 -45.0157 1.61885 -33.9084 3.11296 0.111497 24.8591 -0.229132 1.8876 10.8403 -4.52714 -5.56525e-016 -5 -6.38541e-015 7.50676 9.14943 9.77854 -0.396283 44.6296 0.190924 0.720217 15.3143 -6.63577 1.39131e-016 -5 1.59635e-015 5.55372 7.72936 4.75756 -0.109126 -18.3783 -12.4624 -1.59028e-015 -1.59028e-015 3.18055e-015 10.3695 17.0276 -42.4343 106.426 -50.2046 80.9022 -0.451293 2.65911 19.2862 -1.59028e-015 -1.59028e-015 3.18055e-015 -14.5911 -2.08258 45.9758 -121.347 -44.9664 -93.3357 0.111999 1.3408 -9.57628 
-21.8285 86.9521 39.2517 5.98863 4.14592 -43.2223 -0.103165 -32.218 3.50986 0.133619 27.2343 -0.193294 3.66143 13.138 -11.7772 -0 -5 -0 8.75646 6.68245 7.04659 -0.840439 57.5681 0.521419 1.38497 12.8975 -9.29278 6.95656e-017 -5 7.98176e-016 4.932 8.5541 3.40449 0.440896 -18.473 -12.5617 0 0 -0 13.2347 13.8718 -43.5571 107.799 -49.8534 82.0695 -0.492252 2.77329 20.1512 0 0 -0 -12.3634 -0.37556 44.1271 -120.135 -45.5224 -92.3515 0.0778926 1.12034 -7.98851 
-27.748 85.0134 46.1489 5.32226 1.97579 -43.9964 -3.06507 -28.7957 1.3456 0.235537 35.37 -0.300078 3.37752 3.83121 -11.2474 5.52632e-015 -5 -9.57811e-015 6.22055 3.30093 4.66278 -1.96301 70.8593 1.59087 0.891969 9.5446 -8.39842 -9.57645e-015 -5 -3.99088e-016 2.9151 10.0348 4.59096 1.12766 -18.0931 -12.4811 7.95139e-016 -2.38542e-015 -6.36111e-015 15.6376 9.4481 -44.5501 109.302 -49.4417 83.3431 -0.523654 2.85733 20.7908 7.95139e-016 -2.38542e-015 -6.36111e-015 -10.5375 2.50807 41.7931 -117.32 -46.7155 -90.0444 0.0551127 0.944237 -6.72399 
